inDegrees=no
num_controls=7
num_derivatives=13
num_iterations=58
num_multipliers=7
num_parameters=0
num_slacks=7
num_states=26
objective=0.449307
objective_accelerations=0.051370
objective_balance=0.006555
objective_effort=0.035529
objective_height=0.350912
objective_ligament=0.004941
solver_duration=855.047093
status=Solve_Succeeded
success=true
DataType=double
version=3
OpenSimVersion=4.5
endheader
time	/jointset/ground_pelvis/pelvis_tilt/value	/jointset/ground_pelvis/pelvis_tx/value	/jointset/ground_pelvis/pelvis_ty/value	/jointset/hip_l/hip_flexion_l/value	/jointset/hip_l/hip_adduction_l/value	/jointset/hip_l/hip_rotation_l/value	/jointset/back/lumbar_extension/value	/jointset/patellofemoral_l/patellar_flexion_l/value	/jointset/knee_l/knee_flexion_l/value	/jointset/knee_l/knee_adduction_l/value	/jointset/knee_l/knee_rotation_l/value	/jointset/ankle_l/ankle_angle_l/value	/jointset/subtalar_l/subtalar_angle_l/value	/jointset/ground_pelvis/pelvis_tilt/speed	/jointset/ground_pelvis/pelvis_tx/speed	/jointset/ground_pelvis/pelvis_ty/speed	/jointset/hip_l/hip_flexion_l/speed	/jointset/hip_l/hip_adduction_l/speed	/jointset/hip_l/hip_rotation_l/speed	/jointset/back/lumbar_extension/speed	/jointset/patellofemoral_l/patellar_flexion_l/speed	/jointset/knee_l/knee_flexion_l/speed	/jointset/knee_l/knee_adduction_l/speed	/jointset/knee_l/knee_rotation_l/speed	/jointset/ankle_l/ankle_angle_l/speed	/jointset/subtalar_l/subtalar_angle_l/speed	/forceset/tau_hip_flexion_l	/forceset/tau_hip_adduction_l	/forceset/tau_hip_rotation_l	/forceset/tau_knee_flexion_l	/forceset/tau_ankle_angle_l	/forceset/tau_subtalar_angle_l	/forceset/tau_lumbar_extension	lambda_cid13_p0	lambda_cid13_p1	lambda_cid13_p2	lambda_cid13_p3	lambda_cid13_p4	lambda_cid13_p5	lambda_cid14_p0	/jointset/ground_pelvis/pelvis_tilt/accel	/jointset/ground_pelvis/pelvis_tx/accel	/jointset/ground_pelvis/pelvis_ty/accel	/jointset/hip_l/hip_flexion_l/accel	/jointset/hip_l/hip_adduction_l/accel	/jointset/hip_l/hip_rotation_l/accel	/jointset/back/lumbar_extension/accel	/jointset/patellofemoral_l/patellar_flexion_l/accel	/jointset/knee_l/knee_flexion_l/accel	/jointset/knee_l/knee_adduction_l/accel	/jointset/knee_l/knee_rotation_l/accel	/jointset/ankle_l/ankle_angle_l/accel	/jointset/subtalar_l/subtalar_angle_l/accel	gamma_cid13_p0	gamma_cid13_p1	gamma_cid13_p2	gamma_cid13_p3	gamma_cid13_p4	gamma_cid13_p5	gamma_cid14_p0
1	-0.6017108957409898	-0.102375156989562	0.592875965091161	1.91694948428938	-0.2865961265613884	0.1700784773353314	-0.4362756550040783	1.283895984408161	1.283895984408291	-0.1742970424604373	0.1744588242263544	0.1726048967378573	-0.002248783605489409	-0.008487304274269518	-0.0005855595528620344	-0.00433289707185077	0.01858430161764504	0.001493108537809059	0.004217266228679361	0.0005228730792424047	0.01035685677469581	0.01035685677469593	0.0005054347108758294	-0.0009383594365448659	0.0009729597503576954	0.001836437235482152	-0.4146073685788323	0.03336215864973922	-0.01673240911509559	-0.283969447972201	0.1033699925346826	-0.001998964350274138	0.3409544102223434	-13.89634033471685	4.818952155165325	-2.904217034544531	10.68672898954528	-730.8335334706211	-20.77972857517585	-0.04068293640092358	1.527851546915146	0.1713012491025398	1.767234463129136	-6.182321666896166	-0.557131581252142	-1.872486926296934	0.05542953301072231	-5.108948173050242	-5.108948173050242	-0.1746760888434038	0.1077865136471135	-0.767726583692242	-0.7615777229116851	2.286317955555068e-09	1.47561489910299e-10	-9.144081797006053e-09	-4.158683120276583e-09	2.949654964992517e-09	-8.145920002082114e-09	1.665591365290434e-09
1.01	-0.6017185869649985	-0.102372439400828	0.5929210351101598	1.916825670618687	-0.2866072744559827	0.1700251863129696	-0.4362687372999271	1.283744708026534	1.283744708026565	-0.1742963437731035	0.1744531234319121	0.1725769752016491	-0.002266238083782596	0.007087895946261019	0.001135061323858512	0.01335962379079614	-0.04347963039962226	-0.003633984114191892	-0.01492806467280876	0.0006843293776819723	-0.04058005314725769	-0.04058005314725764	-0.0001848868842793726	-0.0002974988352093937	-0.006511013842656981	-0.005212117080716255	-0.4145029598323067	0.03358475633535202	-0.01675068124658059	-0.2838253859143304	0.1032379528351374	-0.001991584166120797	0.3407775174273895	-13.92822562579188	4.820153413778627	-2.903064816339341	10.71789064247192	-730.6618541383576	-20.77442928033561	-0.04076763402215373	1.593180367560111	0.1733391556907694	1.772170097778491	-6.238317426648542	-0.4771917259604621	-1.94343992075146	-0.02994707829503396	-5.081251672927442	-5.081251672927187	0.01091569470463937	0.02788458725950241	-0.7317934583407236	-0.6592136962024575	7.419097198103348e-09	2.065240224214623e-08	-1.386393438504466e-08	-4.769032556918664e-09	3.801840493831824e-09	-8.925825826454448e-09	6.273512421263666e-09
1.02	-0.6015663609652443	-0.1023523362735794	0.5931434121777794	1.916077239936305	-0.2866670320008461	0.1697788652317995	-0.4362654951840637	1.283085024691459	1.283085024691415	-0.1742971231238391	0.1744509609942398	0.1724756017872618	-0.00235072198728254	0.02349614048424975	0.002891548150064745	0.03112851265134864	-0.1063391007170827	-0.008228821517654165	-0.0343887455213709	-0.0002122445861125293	-0.09132453391562589	-0.09132453391562595	0.0002098271028162298	-0.0002306880785617733	-0.01371741588507817	-0.01156944780607573	-0.4143985510857596	0.03380735402092674	-0.01676895337823249	-0.2836813238564654	0.1031059131355724	-0.001984203982014882	0.3406006246324525	-13.96705933025183	4.82284131753995	-2.902458022412583	10.78164859411026	-730.5858827413138	-20.72854424910908	-0.04110826473921327	1.694460410406702	0.1784744389997295	1.782508062710271	-6.34142932693482	-0.4506805315444405	-1.935556915711744	-0.1561765194360824	-5.070462342333188	-5.070462342333194	0.04233102760671442	-0.007023455290401322	-0.7122122735734562	-0.6233330047439216	-6.769747051005398e-09	-1.479327896716162e-08	6.604693068596039e-08	7.371544427744217e-09	-1.398946812638366e-08	4.910269024606222e-08	-1.329494018747176e-08
1.03	-0.6012481553085354	-0.102314561950933	0.5935435508527804	1.914698587586466	-0.2867717611615316	0.1693374820308745	-0.4362734999906564	1.2819183477035	1.281918347703414	-0.1742921429427102	0.174448546462242	0.1723025380080913	-0.002497529695885665	0.04005809056915544	0.004662038009996193	0.04888121832628587	-0.1692902874222401	-0.01279615458904488	-0.05383001788745088	-0.00126536509079137	-0.142029876801067	-0.142029876801066	0.0006079882642355514	-0.0001535053404998532	-0.0209501154502021	-0.01789665877794859	-0.4141482596235593	0.03385582380250756	-0.01680607166002497	-0.2834373858420189	0.1031010226470072	-0.001908569999773748	0.3405363717013316	-13.94968821766283	4.781057463609369	-2.889063630112918	10.75431874763986	-730.3381274224428	-20.7190764183784	-0.04191444697820591	1.624025577642213	0.1761485071606776	1.768944713329166	-6.256803538227683	-0.4716492735269705	-1.93975839649259	-0.06137706964672392	-5.073415488357546	-5.073415488357119	0.01181054719253601	0.02986080431419756	-0.7370145697511926	-0.6531092336511057	-2.115575072349851e-08	-5.080988386995494e-08	1.468213745085888e-07	1.964223290650212e-08	-3.197101648281409e-08	1.077312922563026e-07	-3.311009048666353e-08
1.04	-0.6007669374969874	-0.1022591202801524	0.5941206751632248	1.912693455330355	-0.2869245415686416	0.1687034169063341	-0.4362883354529976	1.280244048241348	1.28024404824126	-0.1742885307726551	0.1744498580907869	0.1720555040789139	-0.002710748332254987	0.05609857145838149	0.00642501777688406	0.06652563973902231	-0.231635081964193	-0.01783907080406011	-0.07292513023099671	-0.001578375741996842	-0.1928490287548609	-0.1928490287548581	-6.377510302477117e-05	0.0005145440359533536	-0.02851144588611956	-0.02485163335952671	-0.4138979681614362	0.03390429358402376	-0.01684318994195231	-0.2831934478275687	0.1030961321584336	-0.001832936017608608	0.340472118770119	-13.93928963537893	4.740701366387432	-2.876133235653855	10.75941734675251	-730.1861961701885	-20.66961790630587	-0.04350855924066734	1.590166571270627	0.1769724203910995	1.760851210270143	-6.220150894293937	-0.5457971602694049	-1.866324911204964	-0.008154548741213696	-5.093224156003776	-5.093224156003612	-0.1716538781292671	0.1111498723879719	-0.7779384477320155	-0.748885726685019	-1.697351012849483e-08	-3.121366789980224e-08	1.505391455302737e-07	2.088315492007692e-08	-3.14436717067968e-08	1.086832361214924e-07	-2.968490538152869e-08
1.05	-0.600127013194421	-0.1021860204312937	0.5948737731031144	1.910067099405956	-0.2871283741332922	0.1678795117971895	-0.4363037692566821	1.278061340864693	1.278061340864643	-0.1742938631484419	0.1744586742471447	0.1717318672830336	-0.002994431610758238	0.07188717495781735	0.008199978036234247	0.08408277336481355	-0.2936124996591897	-0.02283011896946174	-0.09185996121522398	-0.001498439672487101	-0.2436767613022774	-0.2436767613022766	-0.0008666564350304646	0.001133147082397882	-0.03620556363802757	-0.03176630797836476	-0.4133339441366581	0.03427636801409533	-0.01693016652606774	-0.2829040611372772	0.1033153642575603	-0.001735432724849994	0.3401566443390701	-13.83832014279834	4.670016666692388	-2.852687913592921	10.63537814696648	-729.7931293513873	-20.66927670302035	-0.04645818682201255	1.573339870805673	0.1785161001846827	1.751462151255409	-6.182997716519719	-0.4611809146245051	-1.907692455052688	0.01755948345940697	-5.075189948365312	-5.075189948365409	-0.01420530834843989	0.01984988217627278	-0.7635925661176665	-0.644967873974394	-1.221101190013198e-08	-9.879551277370288e-09	1.518488955269296e-07	2.177939673161482e-08	-3.033792402039062e-08	1.078327844196498e-07	-2.553345979500876e-08
